<svg width="86" height="42" viewBox="0 0 86 42" fill="none" xmlns="http://www.w3.org/2000/svg">
<path d="M34.4901 28.9997C37.7662 28.9997 39.9368 27.5242 39.9368 24.932V14.7496H36.2157V16.5308H36.1349C35.7304 15.494 34.7597 14.6166 33.2227 14.6166C31.1735 14.6166 29.1781 16.1586 29.1781 19.8541C29.1781 23.39 31.0387 24.8257 33.2497 24.8257C34.6518 24.8257 35.7574 24.2408 36.1618 23.2039H36.2697V24.932C36.2697 26.135 35.5619 26.5272 34.5979 26.5272C33.7418 26.5272 33.1149 26.2746 33.007 25.6233H29.4208C29.5624 27.5906 31.3757 28.9997 34.4901 28.9997ZM34.6249 22.2202C33.6002 22.2202 33.007 21.3695 33.007 19.8541C33.007 18.3387 33.6002 17.4348 34.6249 17.4348C35.6495 17.4348 36.2697 18.3387 36.2697 19.8541C36.2697 21.3429 35.6495 22.2202 34.6249 22.2202Z" fill="black"/>
<path d="M41.8293 24.9586H45.5503V19.6414C45.5503 18.4716 46.366 17.7006 47.4648 17.7006C47.849 17.7006 48.4692 17.7604 48.84 17.8867V14.7562C48.5433 14.6698 48.2198 14.6166 47.8962 14.6166C46.7907 14.6166 45.9278 15.2547 45.5503 16.6903H45.4425V14.7496H41.8293V24.9586Z" fill="black"/>
<path d="M54.4282 25.1447C57.2999 25.1447 59.1469 23.7888 59.4975 21.6619H56.1C55.8843 22.2402 55.2709 22.5659 54.5091 22.5659C53.4036 22.5659 52.7565 21.848 52.7565 20.8644V20.7048H59.4975V19.8541C59.4975 16.6039 57.4752 14.6166 54.3473 14.6166C51.1386 14.6166 49.0894 16.7169 49.0894 19.8807C49.0894 23.184 51.1117 25.1447 54.4282 25.1447ZM52.7565 18.6843C52.7767 17.8003 53.5182 17.1955 54.4282 17.1955C55.3518 17.1955 56.0528 17.807 56.073 18.6843H52.7565Z" fill="black"/>
<path d="M65.9773 25.1447C68.8489 25.1447 70.696 23.7888 71.0465 21.6619H67.649C67.4333 22.2402 66.8199 22.5659 66.0581 22.5659C64.9526 22.5659 64.3055 21.848 64.3055 20.8644V20.7048H71.0465V19.8541C71.0465 16.6039 69.0242 14.6166 65.8964 14.6166C62.6876 14.6166 60.6384 16.7169 60.6384 19.8807C60.6384 23.184 62.6607 25.1447 65.9773 25.1447ZM64.3055 18.6843C64.3257 17.8003 65.0672 17.1955 65.9773 17.1955C66.9008 17.1955 67.6018 17.807 67.6221 18.6843H64.3055Z" fill="black"/>
<path d="M76.2859 19.216C76.2927 18.2058 76.8724 17.5943 77.7959 17.5943C78.7329 17.5943 79.2857 18.2058 79.2789 19.216V24.9586H83V18.445C83.0067 16.2251 81.5843 14.6166 79.3868 14.6166C77.8633 14.6166 76.6567 15.4009 76.205 16.6903H76.0972V14.7496H72.5649V24.9586H76.2859V19.216Z" fill="black"/>
<path d="M39.9368 30.3467H36.027L34.3552 37.0996H34.2474L32.5756 30.3467H28.6658L32.1442 40.5558H36.4584L39.9368 30.3467Z" fill="black"/>
<path d="M40.9951 40.5558H44.7161V30.3467H40.9951V40.5558ZM42.8556 29.2833C43.8668 29.2833 44.6892 28.5322 44.6892 27.6084C44.6892 26.6845 43.8668 25.9334 42.8556 25.9334C41.8445 25.9334 41.0221 26.6845 41.0221 27.6084C41.0221 28.5322 41.8445 29.2833 42.8556 29.2833Z" fill="black"/>
<path d="M46.5581 40.5558H50.2522V38.8808H50.3331C50.7645 39.9177 51.7622 40.6887 53.2182 40.6887C55.4293 40.6887 57.2898 38.9872 57.2898 35.4512C57.2898 31.7558 55.2945 30.2138 53.2452 30.2138C51.7082 30.2138 50.7375 31.0911 50.3331 32.128H50.2792V26.9437H46.5581V40.5558ZM50.1983 35.4512C50.1983 33.9358 50.8184 33.0319 51.8431 33.0319C52.8677 33.0319 53.4609 33.9358 53.4609 35.4512C53.4609 36.9666 52.8677 37.8706 51.8431 37.8706C50.8184 37.8706 50.1983 36.9401 50.1983 35.4512Z" fill="black"/>
<path d="M63.8083 40.7419C66.68 40.7419 68.527 39.386 68.8776 37.2591H65.4801C65.2644 37.8373 64.651 38.163 63.8892 38.163C62.7837 38.163 62.1366 37.4452 62.1366 36.4615V36.302H68.8776V35.4512C68.8776 32.2011 66.8553 30.2138 63.7274 30.2138C60.5187 30.2138 58.4695 32.3141 58.4695 35.4778C58.4695 38.7811 60.4918 40.7419 63.8083 40.7419ZM62.1366 34.2814C62.1568 33.3975 62.8983 32.7926 63.8083 32.7926C64.7319 32.7926 65.4329 33.4041 65.4531 34.2814H62.1366Z" fill="black"/>
<path fill-rule="evenodd" clip-rule="evenodd" d="M1.88121 40.6658C1.88121 40.6658 0.788589 29.2546 0.294238 24.0919C0.156896 22.6579 1.09005 21.3349 2.50185 20.9637C3.58539 20.6778 4.61981 20.4054 4.61981 20.4054C4.61981 20.4054 4.28317 18.1127 8.10759 18.3901C8.79029 18.4387 9.42989 18.7388 9.89749 19.2316C10.1465 19.4901 10.8093 19.1833 10.9405 19.6088C10.9405 19.6088 11.2432 14.6013 14.5439 15.7819C14.5439 15.7819 15.6559 17.0365 15.7863 18.4997C15.7863 18.4997 16.6301 15.733 19.3655 16.8563C19.3655 16.8563 20.9712 17.1396 20.392 20.0414C20.392 20.0414 21.2768 19.1702 22.6721 20.074C24.0674 20.9777 24.3469 21.8518 24.5971 26.0207L25.2892 40.5476L1.88121 40.6658Z" fill="#12C35A"/>
<path d="M4.42565 20.1771L1.63954 11.2089C1.63954 11.2089 -1.9314 3.15533 2.39416 3.21711C6.71973 3.27888 8.72544 19.7094 10.3413 19.3026C11.9571 18.8958 13.9679 5.30036 14.447 2.36411C14.9261 -0.572133 18.8858 -0.713996 19.0593 3.45509C19.2328 7.62418 17.4747 17.718 14.9949 19.8651C12.515 22.0122 7.16603 23.1263 7.16603 23.1263L4.42565 20.1771Z" fill="#12C35A"/>
<path fill-rule="evenodd" clip-rule="evenodd" d="M9.62536 28.2302C9.67655 28.1196 9.15438 28.9166 9.06224 28.9957C9.10555 29.0275 9.14143 29.0529 9.15686 29.0639C9.42932 29.3019 9.69469 29.5492 9.96308 29.7927C10.9699 30.7037 11.9784 31.6697 12.7847 32.7617C12.9956 33.0477 13.1887 33.349 13.3621 33.6601C13.249 33.7705 13.1388 33.8839 13.0313 33.9993C12.6155 34.4471 12.2458 34.9451 11.9771 35.4934C11.6434 36.1767 11.4574 37.0668 11.8555 37.7781C12.3515 38.6657 13.657 39.0987 14.5289 38.4512C14.9609 38.1301 15.1736 37.5872 15.258 37.0802C15.3274 36.6599 15.2809 36.2295 15.2001 35.8139C15.0914 35.2502 14.9082 34.6998 14.6818 34.1724C14.6376 34.0711 14.5935 33.9717 14.5464 33.8723C14.8189 33.6437 15.1052 33.4318 15.4042 33.2393C16.2193 32.7147 17.1073 32.3665 18.0527 32.1485C18.3109 32.0882 18.471 31.8335 18.4108 31.579C18.3496 31.3244 18.0914 31.1656 17.8322 31.2258C16.779 31.4701 15.7883 31.8609 14.8785 32.4454C14.6072 32.6199 14.3449 32.8091 14.0936 33.0109C13.9304 32.7325 13.7525 32.463 13.5617 32.2044C12.7179 31.0616 11.6661 30.0475 10.6138 29.094C10.337 28.8435 10.0633 28.5893 9.78249 28.3434C9.76665 28.3304 9.69272 28.2783 9.62536 28.2302ZM13.74 34.6399L13.8073 34.5676C14.0028 35.0265 14.162 35.502 14.2563 35.9912C14.3154 36.2988 14.3606 36.6163 14.3089 36.9273C14.2634 37.2044 14.1866 37.5191 13.9508 37.6941C13.5366 38.0016 12.9322 37.7424 12.6968 37.3209C12.4497 36.879 12.6357 36.3304 12.8429 35.9049C13.0708 35.4404 13.3875 35.0191 13.74 34.6399Z" fill="black"/>
<path d="M10.4202 25.3084C10.8574 24.8587 11.4435 24.1523 12.0912 23.3372C13.6393 21.3891 15.504 18.8192 16.5125 17.4128C16.5994 17.2905 16.7057 17.1074 16.7057 17.1074C17.0202 17.629 17.0009 18.2016 16.6773 18.82C16.6773 18.82 16.5774 18.9588 16.5262 19.029C15.4825 20.4693 14.0674 22.3867 12.8477 23.9211C12.1927 24.7463 11.5881 25.4596 11.1206 25.9448C10.8332 26.5178 10.7652 26.9929 10.844 27.3905C10.9634 27.9978 11.4112 28.4046 11.7888 28.6849C12.7479 29.3951 13.6813 28.8074 13.8861 28.6604L19.595 21.0325L19.9736 20.5366C20.1578 21.1357 19.9333 21.9778 19.5998 22.64L19.3954 22.9175L14.6232 29.2715C14.6056 29.2966 14.5856 29.3184 14.5635 29.3384C14.6308 29.5964 14.7588 30.0349 15.0006 30.4402C15.1801 30.7419 15.4243 31.0327 15.7786 31.171C16.0703 31.2857 16.4172 31.2356 16.8799 31.1355C18.0516 30.8822 18.8484 30.0969 18.8484 30.0969L17.4511 31.9274C17.4511 31.9274 16.444 32.341 15.769 32.1544C15.212 32.0002 14.7678 31.7141 14.4423 31.311C14.0497 30.8262 13.8236 30.2232 13.6991 29.8086C13.0639 30.0356 12.1462 30.1344 11.2111 29.4417C10.6725 29.0425 10.0718 28.438 9.89994 27.5715C9.8558 27.3452 9.83859 27.0991 9.8626 26.8328C9.73221 26.4667 10.1829 25.5449 10.3324 25.3965C10.3574 25.3628 10.3876 25.3333 10.4202 25.3084Z" fill="black"/>
<path fill-rule="evenodd" clip-rule="evenodd" d="M12.591 23.0347C12.6282 23.3112 12.9757 26.5583 4.20691 28.0458C3.94548 28.0899 3.69417 27.9257 3.64464 27.6687C3.59511 27.4117 3.76647 27.1632 4.02713 27.1143C6.77808 26.5974 9.65494 25.5447 10.5619 24.8377C11.7059 23.9454 11.6386 23.1624 11.6386 23.1624L11.6335 23.1214C11.5905 22.5033 11.2665 22.0339 10.7894 21.6695C10.2468 21.2571 9.51815 20.976 8.73538 20.7763C7.39075 20.4338 5.8854 20.3383 4.78664 20.3228C4.67416 20.3214 4.41445 20.3219 4.41445 20.3219L4.41699 19.3765C4.41699 19.3765 4.6421 19.3756 4.73437 19.3772C5.90051 19.3915 7.52694 19.4897 8.97536 19.859C10.8895 20.3456 12.4599 21.3312 12.591 23.0347Z" fill="black"/>
<path fill-rule="evenodd" clip-rule="evenodd" d="M22.4095 26.9254C21.131 29.4765 18.7955 31.3319 17.7704 31.9543L17.2429 31.1097C18.166 30.5492 20.3389 28.8179 21.5076 26.4859L22.4095 26.9254Z" fill="black"/>
</svg>
