<svg width="74" height="74" viewBox="0 0 74 74" fill="none" xmlns="http://www.w3.org/2000/svg">
<mask id="mask0" mask-type="alpha" maskUnits="userSpaceOnUse" x="1" y="1" width="72" height="72">
<circle cx="37" cy="37" r="36" fill="#C4C4C4"/>
</mask>
<g mask="url(#mask0)">
<path d="M13.0465 14.8335C8.8253 18.3986 10.4001 25.0475 17.7271 34.7804" stroke="#0F0B47" stroke-width="2"/>
<path d="M17.7271 37.0333C12.1279 43.4636 9.21899 52.1466 9.00027 63.0168" stroke="#0F0B47" stroke-width="2"/>
<path fill-rule="evenodd" clip-rule="evenodd" d="M45.5918 9.01563C35.5308 5.25372 26.6291 6.76286 18.8428 13.4993C12.1719 11.0278 9.50361 16.3208 12.8718 25.3975L13.0687 25.9005C13.8779 28.0002 15.4308 31.7184 17.7492 37.0332C13.353 42.5448 10.7065 51.3372 9.83168 63.4103C10.969 64.9851 12.5656 66.2974 14.6434 67.3691L15.6058 59.9327V67.8284C18.4054 69.0751 21.9704 69.9281 26.2791 70.3655L27.4821 65.7943V70.4749C29.4943 70.6498 31.6814 70.7155 34.0217 70.7155C42.4641 70.7155 50.6441 69.6219 58.5398 67.4347L57.993 63.1041L59.6115 67.1285C63.1328 66.1005 66.5885 64.8539 70.0005 63.4103C68.3382 56.1052 66.5885 50.5717 64.7513 46.7879C63.439 44.0977 60.4863 39.9202 55.8714 34.2992C55.8714 17.3925 51.1253 12.865 45.5918 9.01563Z" fill="#0F0B47"/>
<path fill-rule="evenodd" clip-rule="evenodd" d="M16.5027 22.2481L16.0215 49.8063C15.9778 52.7153 17.6619 55.3617 20.3302 56.5209C23.1517 57.7676 26.3449 57.9207 29.2976 57.0021L30.763 56.5428L29.1226 72.3122C28.4665 78.5238 32.9939 84.0792 39.1836 84.7353C39.5772 84.7791 39.9709 84.8009 40.3646 84.8009C46.6418 84.8009 51.716 79.7048 51.716 73.4496C51.716 73.0777 51.6941 72.7059 51.6504 72.3341L49.4851 50.6156C49.3539 49.347 49.1789 48.1004 48.9602 46.8537L47.9103 41.1671C51.9784 38.3456 53.422 35.6773 52.219 33.1839C50.4256 29.422 44.8921 32.834 44.8921 34.0369C30.2818 32.1997 21.5113 27.541 18.5805 20.0172C17.4213 20.0828 16.5246 21.067 16.5027 22.2481Z" fill="#FEA7A8"/>
<path fill-rule="evenodd" clip-rule="evenodd" d="M22.1671 49.347L29.1878 46.8099C29.6034 48.844 28.991 50.2438 27.3069 50.9874C25.6228 51.7311 23.9168 51.1843 22.1671 49.347Z" fill="#FFFCF8"/>
<path fill-rule="evenodd" clip-rule="evenodd" d="M41.48 49.3469C37.9149 52.7152 34.3498 55.0992 30.7629 56.5427L29.1881 71.6778L41.48 49.3469Z" fill="#E19394"/>
<path fill-rule="evenodd" clip-rule="evenodd" d="M48.2381 44.1634C46.9258 44.1634 45.8541 43.0917 45.8541 41.7794C45.8541 40.4671 46.9258 39.3954 48.2381 39.3954C49.5504 39.3954 50.6221 40.4671 50.6221 41.7794C50.6221 43.0917 49.5504 44.1634 48.2381 44.1634Z" fill="#FFFCF8"/>
<path d="M50.6663 36.1803C51.0163 34.4743 50.5788 33.5338 49.3321 33.3807C48.1073 33.2057 47.1887 34.1462 46.5763 36.1803" stroke="#0F0B47" stroke-width="2"/>
<path d="M23.1738 35.2178C23.1082 38.761 22.3427 40.9919 20.8773 41.8667C18.6682 43.2009 20.8773 47.1597 24.333 45.5412" stroke="#0F0B47" stroke-width="2"/>
<path d="M28.7288 35.6116C27.9316 35.6116 27.2853 36.2481 27.2853 37.0332C27.2853 37.8184 27.9316 38.4549 28.7288 38.4549C29.5261 38.4549 30.1724 37.8184 30.1724 37.0332C30.1724 36.2481 29.5261 35.6116 28.7288 35.6116Z" fill="#0F0B47"/>
<path fill-rule="evenodd" clip-rule="evenodd" d="M27.3505 28.4814L33.1246 29.5969C33.6057 29.6844 33.9119 30.1437 33.8245 30.6249C33.8245 30.6249 33.8245 30.6249 33.8245 30.6467C33.7151 31.1279 33.2558 31.4341 32.7746 31.3466L27.0005 30.2312C26.5193 30.1437 26.2131 29.6844 26.3006 29.2032C26.3006 29.2032 26.3006 29.2032 26.3006 29.1813C26.41 28.7002 26.8693 28.394 27.3505 28.4814Z" fill="#0F0B47"/>
<path fill-rule="evenodd" clip-rule="evenodd" d="M22.2331 28.4814L16.459 29.5969C15.9778 29.6844 15.6716 30.1437 15.7591 30.6249C15.7591 30.6249 15.7591 30.6249 15.7591 30.6467C15.8685 31.1279 16.3278 31.4341 16.809 31.3466L22.5831 30.2312C23.0642 30.1437 23.3704 29.6844 23.283 29.2032C23.283 29.2032 23.283 29.2032 23.283 29.1813C23.1955 28.7002 22.7143 28.394 22.2331 28.4814Z" fill="#0F0B47"/>
<path d="M19.1707 35.6116C18.3735 35.6116 17.7272 36.2481 17.7272 37.0332C17.7272 37.8184 18.3735 38.4549 19.1707 38.4549C19.968 38.4549 20.6143 37.8184 20.6143 37.0332C20.6143 36.2481 19.968 35.6116 19.1707 35.6116Z" fill="#0F0B47"/>
<path d="M18.3614 19.3173C21.7953 29.0939 30.6314 33.9712 44.9136 33.9712" stroke="#0F0B47" stroke-width="2"/>
<path fill-rule="evenodd" clip-rule="evenodd" d="M28.4434 33.4035C30.4244 33.4035 32.0303 35.0094 32.0303 36.9904C32.0303 38.9715 30.4244 40.5774 28.4434 40.5774C26.4624 40.5774 24.8564 38.9715 24.8564 36.9904C24.8564 35.0094 26.4624 33.4035 28.4434 33.4035ZM32.4678 36.9904C32.4678 34.7678 30.666 32.9661 28.4434 32.9661C26.2208 32.9661 24.419 34.7678 24.419 36.9904C24.419 39.213 26.2208 41.0148 28.4434 41.0148C30.666 41.0148 32.4678 39.213 32.4678 36.9904Z" fill="#F9F9F9"/>
<path fill-rule="evenodd" clip-rule="evenodd" d="M18.3169 33.4035C20.2979 33.4035 21.9039 35.0094 21.9039 36.9904C21.9039 38.9715 20.2979 40.5774 18.3169 40.5774C16.3359 40.5774 14.73 38.9715 14.73 36.9904C14.73 35.0094 16.3359 33.4035 18.3169 33.4035ZM22.3413 36.9904C22.3413 34.7678 20.5395 32.9661 18.3169 32.9661C16.0943 32.9661 14.2926 34.7678 14.2926 36.9904C14.2926 39.213 16.0943 41.0148 18.3169 41.0148C20.5395 41.0148 22.3413 39.213 22.3413 36.9904Z" fill="#F9F9F9"/>
<path fill-rule="evenodd" clip-rule="evenodd" d="M43.6178 33.7983L32.178 36.4274L32.276 36.8537L43.7158 34.2247L43.6178 33.7983Z" fill="#F9F9F9"/>
<path fill-rule="evenodd" clip-rule="evenodd" d="M21.969 37.2092H24.4624V36.7717H21.969V37.2092Z" fill="#F9F9F9"/>
</g>
</svg>
